<?xml version="1.0" standalone="no"?>
<!DOCTYPE svg PUBLIC "-//W3C//DTD SVG 20010904//EN"
 "http://www.w3.org/TR/2001/REC-SVG-20010904/DTD/svg10.dtd">
<svg version="1.0" xmlns="http://www.w3.org/2000/svg"
 width="600.000000pt" height="600.000000pt" viewBox="0 0 600.000000 600.000000"
 preserveAspectRatio="xMidYMid meet">
<metadata>
Created by potrace 1.16, written by Peter Selinger 2001-2019
</metadata>
<g transform="translate(0.000000,600.000000) scale(0.100000,-0.100000)"
fill="#000000" stroke="none">
<path d="M2318 5380 c-71 -9 -158 -51 -194 -93 -31 -37 -69 -117 -109 -231
-36 -100 -74 -144 -154 -174 -229 -88 -356 -326 -296 -557 30 -115 129 -263
240 -359 l54 -46 -29 -86 c-184 -542 -198 -1080 -38 -1480 23 -60 44 -112 46
-115 1 -3 -14 -13 -33 -22 -20 -10 -59 -38 -87 -64 -126 -119 -142 -276 -42
-424 19 -28 34 -52 34 -53 0 -1 -21 -24 -46 -52 -126 -135 -235 -417 -314
-814 -41 -206 -85 -523 -96 -702 l-7 -108 42 0 c32 0 41 4 41 18 0 88 53 522
86 702 25 137 72 334 101 425 21 68 94 255 99 255 2 0 52 -33 111 -74 60 -40
188 -122 286 -180 97 -59 177 -109 177 -110 0 -2 -15 -36 -34 -77 -122 -265
-167 -526 -114 -666 27 -74 142 -191 245 -251 l71 -42 104 0 103 1 -56 23
c-221 92 -358 201 -397 315 -39 114 16 365 135 623 46 97 46 99 27 117 -10 10
-93 62 -184 116 -183 109 -430 272 -430 284 0 20 97 131 114 131 6 0 63 -36
126 -81 418 -293 1311 -757 1915 -996 77 -30 141 -56 143 -58 9 -8 72 -254 92
-357 l23 -118 39 0 c31 0 38 4 38 19 0 61 -83 395 -150 603 -41 128 -59 155
-94 142 -26 -10 -27 -38 -1 -113 l24 -72 -22 7 c-12 3 -87 33 -167 66 -560
231 -1349 643 -1750 916 -209 142 -251 184 -286 291 -32 99 8 191 120 273 21
15 44 28 51 28 6 0 32 -28 57 -63 58 -78 185 -200 265 -255 207 -140 435 -212
676 -212 333 0 635 121 897 359 l81 74 42 -13 c99 -28 187 -106 207 -181 41
-152 -99 -300 -315 -334 -63 -10 -73 -14 -78 -34 -8 -33 11 -51 55 -51 82 0
203 42 275 96 41 31 59 30 114 -4 181 -115 430 -616 670 -1349 l63 -193 42 0
43 0 -14 48 c-43 143 -175 519 -241 685 -194 489 -359 771 -512 873 -31 21
-58 39 -59 40 -2 0 7 20 19 45 34 67 32 186 -4 255 -34 66 -94 119 -177 157
-36 17 -67 31 -69 32 -1 1 22 41 52 88 29 48 62 108 71 135 l18 49 68 -35 c59
-30 81 -36 153 -40 133 -7 234 36 331 139 181 194 175 531 -13 719 -58 58 -59
60 -40 77 34 30 115 146 146 208 48 95 65 167 60 254 -8 129 -68 227 -163 267
l-39 16 27 15 c16 8 62 21 104 29 91 17 131 35 176 79 73 71 87 168 34 238
-40 53 -89 72 -182 72 -92 -1 -144 -22 -239 -99 l-54 -45 -4 92 c-3 80 -7 101
-36 159 -42 86 -109 147 -226 203 -97 47 -186 72 -386 105 -372 63 -622 157
-974 368 -227 136 -332 169 -478 152z m144 -81 c71 -15 171 -62 298 -141 346
-214 604 -309 1036 -382 241 -41 365 -89 454 -176 78 -76 107 -169 89 -281
-10 -61 -40 -145 -66 -184 -22 -33 -16 -64 14 -71 23 -6 31 -2 52 27 55 75
216 224 273 252 148 71 285 -4 223 -123 -22 -42 -72 -68 -173 -90 -158 -33
-286 -120 -267 -180 6 -17 15 -20 78 -18 84 1 123 -15 160 -64 38 -51 50 -102
45 -187 -4 -62 -11 -91 -41 -153 -33 -68 -138 -215 -166 -232 -6 -4 -39 1 -73
10 -99 26 -183 16 -280 -34 l-80 -41 -29 62 c-63 134 -69 205 -59 747 5 267 1
274 -145 273 -85 -1 -148 -11 -475 -73 -323 -61 -472 -81 -661 -87 -299 -10
-484 36 -637 156 -57 45 -86 51 -102 21 -10 -18 -6 -26 24 -56 l35 -35 -52
-112 c-28 -62 -53 -114 -55 -117 -2 -3 -39 31 -82 76 -58 61 -88 102 -121 169
-43 87 -44 90 -44 189 0 92 3 106 29 158 46 90 113 151 233 209 125 62 146 87
203 250 22 61 49 126 61 145 51 84 170 120 301 93z m1416 -1159 c2 -52 -1
-179 -8 -281 -12 -199 -3 -361 26 -474 27 -110 107 -255 140 -255 7 0 37 18
65 39 205 155 472 39 544 -236 40 -153 -3 -312 -115 -424 -75 -75 -145 -103
-250 -97 -59 4 -87 11 -129 33 -68 37 -141 118 -172 189 -26 60 -52 78 -76 53
-24 -23 -9 -77 43 -154 l45 -68 -25 -65 c-168 -423 -716 -742 -1186 -690 -275
30 -494 134 -685 325 -148 148 -234 305 -290 533 -98 392 -33 939 169 1426 31
74 82 184 91 194 1 1 31 -11 66 -28 255 -119 588 -116 1244 11 286 55 370 68
440 66 l60 -2 3 -95z"/>
<path d="M2894 3987 c-116 -56 -167 -137 -167 -267 0 -154 106 -366 252 -504
30 -28 32 -29 113 -23 176 13 358 88 464 192 85 83 116 148 122 252 4 70 1 88
-18 127 -44 93 -159 156 -257 142 -36 -5 -106 -31 -143 -53 -3 -2 -18 17 -34
42 -15 25 -49 60 -75 78 -41 28 -55 32 -126 35 -68 2 -88 -1 -131 -21z m179
-61 c44 -18 89 -67 117 -126 27 -59 45 -68 80 -40 85 68 169 86 239 50 110
-56 129 -184 45 -308 -81 -122 -246 -204 -471 -236 -40 -6 -43 -4 -83 42 -91
102 -158 220 -186 325 -27 103 -13 178 45 236 61 61 149 85 214 57z"/>
<path d="M2061 3394 c-127 -65 -156 -384 -48 -526 81 -105 195 -153 350 -146
109 5 181 34 247 100 112 112 149 323 81 456 -24 48 -61 76 -119 92 -48 12
-84 7 -146 -21 -60 -27 -93 -24 -161 18 -73 44 -149 54 -204 27z m171 -101
c79 -49 123 -52 222 -18 77 26 83 27 117 13 41 -18 64 -58 74 -131 l8 -49 -31
16 c-75 39 -273 40 -380 2 -60 -22 -129 -72 -160 -117 -15 -21 -30 -38 -33
-39 -4 0 -12 29 -19 64 -24 127 17 269 85 296 27 11 49 4 117 -37z m349 -239
c49 -29 56 -47 36 -89 -27 -57 -93 -121 -149 -145 -88 -38 -235 -28 -315 22
-26 15 -33 26 -33 50 0 58 63 127 145 158 88 34 261 36 316 4z"/>
<path d="M4234 2976 c-68 -42 -117 -164 -96 -241 7 -25 14 -30 38 -30 29 0 29
1 35 65 8 103 43 146 126 159 34 6 38 9 38 36 0 29 -2 30 -50 33 -39 2 -59 -3
-91 -22z"/>
<path d="M1385 4126 c-34 -15 -80 -57 -111 -100 l-20 -28 -41 21 c-83 42 -165
36 -245 -16 -96 -64 -122 -198 -64 -318 71 -145 239 -246 466 -280 112 -17
113 -17 192 79 191 232 228 465 92 585 -74 65 -193 90 -269 57z m177 -87 c69
-35 105 -107 95 -190 -12 -96 -81 -233 -166 -328 l-46 -51 -65 10 c-100 16
-214 58 -279 101 -167 111 -201 304 -66 369 67 33 125 22 192 -34 18 -15 40
-26 50 -24 9 2 28 25 42 52 60 117 138 147 243 95z"/>
<path d="M2442 883 c-68 -94 -112 -166 -123 -208 -14 -48 10 -91 64 -116 61
-27 101 -25 139 10 l33 29 4 120 3 120 337 -168 c499 -250 784 -372 871 -374
43 -1 45 0 45 28 0 28 -4 31 -94 62 -171 59 -361 146 -783 356 -229 114 -423
208 -431 208 -9 0 -37 -30 -65 -67z"/>
<path d="M1841 892 c-23 -43 -64 -346 -86 -642 -21 -271 -23 -250 25 -250 22
0 40 3 40 8 0 123 56 652 84 798 8 45 10 78 4 88 -12 22 -55 20 -67 -2z"/>
</g>
</svg>
